<svg xmlns="http://www.w3.org/2000/svg" width="43.146" height="53.449" viewBox="0 0 43.146 53.449"><path d="M0-17.053A21.487,21.487,0,0,0,20.225,4.285v-11.3l-4.854-3.612a1.334,1.334,0,0,1-.555-1.238,1.337,1.337,0,0,1,.818-1.083,1.355,1.355,0,0,1,1.354.18l3.237,2.407v-4.682L15.37-18.659a1.331,1.331,0,0,1-.555-1.237,1.338,1.338,0,0,1,.818-1.084,1.352,1.352,0,0,1,1.353.182l3.236,2.407v-4.682l-4.854-3.612a1.339,1.339,0,0,1-.555-1.238,1.342,1.342,0,0,1,.82-1.084,1.355,1.355,0,0,1,1.351.181l3.237,2.409V-31.77a1.344,1.344,0,0,1,1.349-1.338,1.344,1.344,0,0,1,1.349,1.338v5.352l3.236-2.409a1.356,1.356,0,0,1,1.352-.181,1.341,1.341,0,0,1,.819,1.084,1.335,1.335,0,0,1-.554,1.238l-4.855,3.612v4.683L26.153-20.8a1.359,1.359,0,0,1,1.354-.182,1.338,1.338,0,0,1,.818,1.085,1.329,1.329,0,0,1-.555,1.237l-4.854,3.613v4.684l3.237-2.409a1.358,1.358,0,0,1,1.354-.182,1.343,1.343,0,0,1,.818,1.084,1.335,1.335,0,0,1-.555,1.238L22.915-7.017V4.288A21.488,21.488,0,0,0,43.146-17.053c0-15.3-19.208-32.108-21.573-32.108S0-32.353,0-17.053" transform="translate(0 49.161)" fill="#fff"/></svg>