<svg xmlns="http://www.w3.org/2000/svg" xmlns:xlink="http://www.w3.org/1999/xlink" width="156.604" height="156.604" viewBox="0 0 156.604 156.604"><defs><clipPath id="a"><path d="M0-58.869a78.3,78.3,0,0,0,78.3,78.3h0a78.3,78.3,0,0,0,78.3-78.3h0a78.3,78.3,0,0,0-78.3-78.3h0A78.3,78.3,0,0,0,0-58.869" transform="translate(0 137.17)" fill="none"/></clipPath><linearGradient id="b" x1="0.415" y1="0.095" x2="0.995" y2="0.095" gradientUnits="objectBoundingBox"><stop offset="0" stop-color="#af1556"/><stop offset="0.1" stop-color="#b31357"/><stop offset="0.2" stop-color="#b61158"/><stop offset="0.3" stop-color="#ba0f58"/><stop offset="0.4" stop-color="#bd0d59"/><stop offset="0.5" stop-color="#c00b59"/><stop offset="0.6" stop-color="#c3095a"/><stop offset="0.7" stop-color="#c6085a"/><stop offset="0.8" stop-color="#c9065b"/><stop offset="0.9" stop-color="#cc045b"/><stop offset="1" stop-color="#cf025b"/></linearGradient></defs><g transform="translate(0 136.355)"><g transform="translate(0 -136.355)" clip-path="url(#a)"><g transform="translate(0 301.515) rotate(-90)"><path d="M303.01,0V1002H0V0Z" transform="translate(0)" fill="url(#b)"/></g></g><g transform="translate(0 -137.85)"><g transform="translate(43.037 39.303)"><path d="M9.884,4.955A9.1,9.1,0,0,0,.793-4.136c-12.059.5-12.054,17.684,0,18.183A9.1,9.1,0,0,0,9.884,4.955" transform="translate(8.25 4.136)" fill="#fff"/></g><g transform="translate(36.522 57.565)"><path d="M16.96,9.961v-2.8c-.857-20.647-30.268-20.629-31.116,0v2.8a2.448,2.448,0,0,0,2.446,2.449H14.512A2.449,2.449,0,0,0,16.96,9.961" transform="translate(14.156 8.314)" fill="#fff"/></g><g transform="translate(95.48 39.303)"><path d="M9.884,4.955A9.1,9.1,0,0,0,.793-4.136c-12.059.5-12.054,17.684,0,18.183A9.1,9.1,0,0,0,9.884,4.955" transform="translate(8.25 4.136)" fill="#fff"/></g><g transform="translate(88.965 57.485)"><path d="M8.48,0A15.575,15.575,0,0,0-7.078,15.558v2.8A2.448,2.448,0,0,0-4.629,20.8H21.59a2.448,2.448,0,0,0,2.449-2.449v-2.8A15.575,15.575,0,0,0,8.48,0" transform="translate(7.078)" fill="#fff"/></g><g transform="translate(47.012 83.183)"><path d="M2.668.285c0-.174,0-.349.007-.523h-4.9A31.252,31.252,0,0,0,10.548,25.511a20.5,20.5,0,0,1,2.611-4.159A26.354,26.354,0,0,1,2.668.285" transform="translate(2.226 0.238)" fill="#fff"/></g><g transform="translate(63.542 52.45)"><path d="M2.157,3.906a26.666,26.666,0,0,1,21.607,0A20.6,20.6,0,0,1,27.721.4,31.607,31.607,0,0,0-1.8.4,20.6,20.6,0,0,1,2.157,3.906" transform="translate(1.8 3.26)" fill="#fff"/></g><g transform="translate(94.206 83.184)"><path d="M5.715,0A26.364,26.364,0,0,1-4.77,21.588a20.453,20.453,0,0,1,2.611,4.161A31.254,31.254,0,0,0,10.61,0Z" transform="translate(4.77)" fill="#fff"/></g><g transform="translate(69.258 83.879)"><path d="M9.884,4.955A9.1,9.1,0,0,0,.793-4.136c-12.059.5-12.054,17.684,0,18.183A9.1,9.1,0,0,0,9.884,4.955" transform="translate(8.25 4.136)" fill="#fff"/></g><g transform="translate(62.743 102.061)"><path d="M8.48,0A15.575,15.575,0,0,0-7.078,15.558v2.8A2.448,2.448,0,0,0-4.629,20.8H21.592a2.448,2.448,0,0,0,2.446-2.449v-2.8A15.575,15.575,0,0,0,8.48,0" transform="translate(7.078)" fill="#fff"/></g></g></g></svg>