<svg xmlns="http://www.w3.org/2000/svg" xmlns:xlink="http://www.w3.org/1999/xlink" viewBox="0 0 40.49 40.49"><defs><style>.cls-1{fill:none;}.cls-2{clip-path:url(#clip-path);}.cls-3{fill:url(#linear-gradient);}.cls-4{clip-path:url(#clip-path-2);}.cls-5{fill:#fff;}.cls-6{clip-path:url(#clip-path-3);}</style><clipPath id="clip-path"><circle class="cls-1" cx="20.24" cy="20.24" r="20.24"/></clipPath><linearGradient id="linear-gradient" x1="-669.46" y1="419.82" x2="-668.46" y2="419.82" gradientTransform="matrix(0, 46.23, 46.23, 0, -19387.29, 30944.2)" gradientUnits="userSpaceOnUse"><stop offset="0" stop-color="#cf035c"/><stop offset="0.99" stop-color="#b01657"/><stop offset="1" stop-color="#b01657"/></linearGradient><clipPath id="clip-path-2"><rect class="cls-1" width="40.49" height="40.49"/></clipPath><clipPath id="clip-path-3"><path class="cls-1" d="M12.19,28.54a.65.65,0,0,1,.65-.65H24.51a.65.65,0,0,1,.64.65v.66h-13Zm7.3-4.81a1.23,1.23,0,0,1,2.38,0l.78,2.87H18.71Zm-3.38-6.06.92-.92.92.92-.92.92Zm6.51,4.78h0a6.55,6.55,0,0,0,1.74-4.83,5.4,5.4,0,0,0-.13-.72,2.64,2.64,0,0,0,1.14-.7h0a5.5,5.5,0,0,1,.29,1.29,7.85,7.85,0,0,1-2.46,6.24,2.39,2.39,0,0,0-.59-1.28m-.42-8a1.3,1.3,0,0,1,2.59,0,1.31,1.31,0,0,1-1.3,1.3,1.3,1.3,0,0,1-1.29-1.3M19.06,17l-1.31-1.31a.64.64,0,0,1,0-.91L23.8,8.67a.65.65,0,0,1,.91,0L26,10a.64.64,0,0,1,0,.91l-1.25,1.26a2.63,2.63,0,0,0-1.28-.34,2.6,2.6,0,0,0-2.59,2.59,2.63,2.63,0,0,0,.34,1.28L20,17a.65.65,0,0,1-.46.19.62.62,0,0,1-.46-.19m3.82-9.19-6.05,6.05a2,2,0,0,0-.52,1.83l-1.08,1.07a1.35,1.35,0,0,0,0,1.91l.84.84a1.34,1.34,0,0,0,1.9,0l1.09-1.08a1.94,1.94,0,0,0,1.83-.52l1.25-1.25a2.34,2.34,0,0,0,.73.3,3.06,3.06,0,0,1,.2.83,5.18,5.18,0,0,1-1.51,3.94,2.37,2.37,0,0,0-.88-.16,2.53,2.53,0,0,0-2.44,1.86h0L11.9,20.26a.64.64,0,0,0-.86.3.63.63,0,0,0,.29.86l6.56,3.25-.53,1.93H12.84a1.94,1.94,0,0,0-1.94,1.94v1.31a.65.65,0,0,0,.65.65H25.8a.65.65,0,0,0,.65-.65V28.54a1.94,1.94,0,0,0-1.94-1.94H24l-.4-1.49A9.17,9.17,0,0,0,27,17.36a6.85,6.85,0,0,0-.87-2.73,2.44,2.44,0,0,0-.38-1.57l1.24-1.24a1.93,1.93,0,0,0,0-2.74L25.63,7.76a2.07,2.07,0,0,0-1.39-.58,2,2,0,0,0-1.36.58"/></clipPath></defs><g id="Layer_2" data-name="Layer 2"><g id="Layer_1-2" data-name="Layer 1"><g class="cls-2"><rect class="cls-3" width="40.49" height="40.49"/></g><g class="cls-4"><path class="cls-5" d="M23.21,23.73a2.39,2.39,0,0,0-.59-1.28h0a6.55,6.55,0,0,0,1.74-4.83,5.4,5.4,0,0,0-.13-.72,2.64,2.64,0,0,0,1.14-.7h0a5.5,5.5,0,0,1,.29,1.29,7.85,7.85,0,0,1-2.46,6.24m1.3,4.16a.65.65,0,0,1,.64.65v.66h-13v-.66a.65.65,0,0,1,.65-.65Zm-5-4.16a1.23,1.23,0,0,1,2.38,0l.78,2.87H18.71Zm2.71-9.32a1.3,1.3,0,0,1,2.59,0,1.31,1.31,0,0,1-1.3,1.3,1.3,1.3,0,0,1-1.29-1.3m-1.3,0a2.63,2.63,0,0,0,.34,1.28L20,17a.66.66,0,0,1-.92,0l-1.31-1.31a.64.64,0,0,1,0-.91L23.8,8.67a.64.64,0,0,1,.91,0L26,10a.65.65,0,0,1,0,.92l-1.25,1.25a2.63,2.63,0,0,0-1.28-.34,2.6,2.6,0,0,0-2.59,2.59M17,18.59h0l-.92-.92.92-.92.92.92ZM27,17.36a6.85,6.85,0,0,0-.87-2.73,2.44,2.44,0,0,0-.38-1.57l1.24-1.24a1.94,1.94,0,0,0,0-2.74L25.63,7.76a1.93,1.93,0,0,0-2.75,0l-6.05,6.05a2,2,0,0,0-.52,1.83l-1.07,1.08a1.33,1.33,0,0,0,0,1.9l.84.84a1.34,1.34,0,0,0,1.9,0l1.09-1.08a1.94,1.94,0,0,0,1.83-.52l1.25-1.25a2.34,2.34,0,0,0,.73.3,3.06,3.06,0,0,1,.2.83,5.16,5.16,0,0,1-1.51,3.94,2.59,2.59,0,0,0-.88-.16,2.53,2.53,0,0,0-2.44,1.86h0L11.9,20.26a.64.64,0,0,0-.86.3.65.65,0,0,0,.29.87l6.56,3.24-.52,1.93H12.84a1.94,1.94,0,0,0-1.94,1.94v1.31a.65.65,0,0,0,.65.65H25.8a.65.65,0,0,0,.65-.65V28.54a1.94,1.94,0,0,0-1.94-1.94H24l-.4-1.49A9.17,9.17,0,0,0,27,17.36"/></g><g class="cls-6"><path class="cls-5" d="M16.56,27.87l.85-3.18C17.6,24.2,19.09,22,19.09,22s3.2.51,3.94,1.06A10.75,10.75,0,0,1,24.4,24.3l.22,1.4.61,2.17,7.05,2.44s-.52,5.39-.64,5.39S13,37.85,12.87,37.85s-6.78-1-6.78-1-1.25-3.54-1.25-3.72.58-4.22.58-4.22l2.9-1.31Z"/></g></g></g></svg>