<svg xmlns="http://www.w3.org/2000/svg" width="56.898" height="56.898" viewBox="0 0 56.898 56.898"><path d="M2917.262-2377.325a1.667,1.667,0,0,1-1.667-1.667v-1.9a10.606,10.606,0,0,1,10.594-10.594,10.606,10.606,0,0,1,10.595,10.594v1.9a1.668,1.668,0,0,1-1.668,1.667Zm19.757-12.319a17.954,17.954,0,0,0,7.139-14.7h3.333a21.285,21.285,0,0,1-8.694,17.533A13.963,13.963,0,0,0,2937.019-2389.644Zm-32.132-14.7h3.333c0,.119,0,.238,0,.356a17.944,17.944,0,0,0,7.144,14.344,13.982,13.982,0,0,0-1.778,2.832A21.281,21.281,0,0,1,2904.887-2404.345Zm21.3.475a6.2,6.2,0,0,1,6.19,6.189,6.2,6.2,0,0,1-6.19,6.19A6.19,6.19,0,0,1,2926.189-2403.869Zm8.927-3.809a1.667,1.667,0,0,1-1.667-1.667v-1.9a10.607,10.607,0,0,1,10.595-10.595,10.607,10.607,0,0,1,10.594,10.595v1.9a1.667,1.667,0,0,1-1.667,1.667Zm-17.854,0h-17.854a1.667,1.667,0,0,1-1.668-1.667v-1.9c.579-14.047,20.605-14.058,21.189,0v1.9a1.666,1.666,0,0,1-1.665,1.667Zm1.571-12.713a14.071,14.071,0,0,0-2.695-2.388,21.512,21.512,0,0,1,20.1,0,14.065,14.065,0,0,0-2.694,2.388A18.153,18.153,0,0,0,2918.833-2420.392Zm25.211-13.831a6.2,6.2,0,0,1,6.189,6.19,6.2,6.2,0,0,1-6.189,6.189A6.19,6.19,0,0,1,2944.044-2434.223Zm-35.709,0a6.2,6.2,0,0,1,6.189,6.19,6.2,6.2,0,0,1-6.189,6.189A6.19,6.19,0,0,1,2908.335-2434.223Z" transform="translate(-2897.74 2434.223)" fill="#fff"/></svg>