<svg xmlns="http://www.w3.org/2000/svg" xmlns:xlink="http://www.w3.org/1999/xlink" width="270.084" height="92.168" viewBox="0 0 270.084 92.168">
  <defs>
    <clipPath id="clip-path">
      <path id="Path_3200" data-name="Path 3200" d="M0,50.771H270.084V-41.4H0Z" transform="translate(0 41.397)" fill="none"/>
    </clipPath>
  </defs>
  <g id="logo_ache" data-name="logo ache" transform="translate(0 41.397)">
    <g id="Group_6218" data-name="Group 6218" transform="translate(0 -41.397)" clip-path="url(#clip-path)">
      <g id="Group_6214" data-name="Group 6214" transform="translate(0.001 0.001)">
        <path id="Path_3195" data-name="Path 3195" d="M131.8,31.759c11.6,0,25.194-3.451,30.093-13.421H143.406c-1.456,2.894-6.71,4.535-11.6,4.535-14.5,0-15.59-7.073-16.133-10.148h46.945v-2c0-19.219-18.667-23.024-32.083-23.024-29.908,0-32.813,16.135-32.813,21.029,0,17.222,14.868,23.028,34.085,23.028m-1.632-35c5.8,0,12.869,1.995,13.955,8.7H116.214c1.089-5.437,5.62-8.7,13.958-8.7M158.63-25.893h-56.2v7.076h56.2ZM-71.393,4.563-87.53,6.19c-11.415.913-19.938,5.083-19.938,13.241,0,8.7,10.513,12.328,20.842,12.328,12.152,0,17.95-3.451,21.937-6.167a15.141,15.141,0,0,0,1.815,5.07h19.21v-1.81c-2.173-.361-3.8-1.447-3.8-6.521V-.338c0-10.141-17.589-11.96-27.372-11.96-13.96,0-28.463,1.819-30.453,14.508h17.4c.363-2.362,1.993-5.8,10.878-5.8,4.709,0,11.96.358,11.96,4.894,0,2.362-3.622,3.081-6.339,3.264m6.339,11.054c0,5.083-8.153,8.158-16.128,8.158-3.449,0-8.342-1.084-8.342-5.072,0-4.538,5.622-5.439,12.145-6.165,7.432-.717,10.518-1.452,12.326-2.353ZM47.7,6.56c0-6.348,6.161-9.612,14.138-9.612,11.415,0,11.78,5.261,11.78,8.16V30.661h17.95v-29c0-9.238-10.516-13.955-23.75-13.955-9.792,0-17.4,3.081-19.755,6.523H47.7V-25.9H29.75V30.661H47.7Zm-56.558,25.2c25.016,0,30.458-12.156,31-16.507H4.008c0,2-3.079,7.439-12.145,7.439-13.595,0-13.955-9.064-13.955-13.592,0-5.261,3.081-12.15,14.321-12.15C.566-3.412,3.284.938,4.188,3.661h18.13C20.684-9.4,2.924-12.3-7.772-12.3c-23.019,0-32.809,9.614-32.809,23.211,0,8.69,5.985,20.846,31.718,20.846" transform="translate(107.468 25.895)" fill="#fff"/>
      </g>
      <g id="Group_6215" data-name="Group 6215" transform="translate(2.173 70.541)">
        <path id="Path_3196" data-name="Path 3196" d="M1.272,1.369C2.643-.161,3.881-1.116,5.954-1.116a4.95,4.95,0,0,1,4.582,2.992c1.975-2.643,3.881-2.992,5.119-2.992,4.215,0,5.152,3.567,5.152,6.02v8.567H18.5V4.9c0-1.625-.534-4.077-3.244-4.077a5.162,5.162,0,0,0-4.215,2.578V13.472H8.73V4.967C8.73,2.324,7.662.828,5.286.828c-1.841,0-3.012,1.113-4.014,2.451V13.472H-1.037V-.829H1.272Z" transform="translate(1.037 1.116)" fill="#fff"/>
      </g>
      <g id="Group_6216" data-name="Group 6216" transform="translate(27.962 70.54)">
        <path id="Path_3197" data-name="Path 3197" d="M4.533,4.089c-3.847.668-5.92,1.879-5.92,3.663a2.347,2.347,0,0,0,2.543,2.2,5.2,5.2,0,0,0,3.378-1.53Zm4.649,6.147c-1.872,1.274-2.576,1.307-2.977,1.307-1.238,0-1.505-.957-1.639-1.625A6.858,6.858,0,0,1,.185,11.543,3.722,3.722,0,0,1-3.7,7.912c0-2.327,2.006-4.206,8.229-5.257V1.382c0-.924-.167-2.772-2.977-2.772A6.9,6.9,0,0,0-3.128.711V-1.582A7.746,7.746,0,0,1,1.757-3.334c4.281,0,5.083,2.868,5.083,4.493V8.994c0,.606.067.764.4.764A4.386,4.386,0,0,0,9.182,8.74Z" transform="translate(3.696 3.334)" fill="#fff"/>
      </g>
      <path id="Path_3198" data-name="Path 3198" d="M22.278,7.926H19.969v-14.3h2.309Zm.367-18.7A1.463,1.463,0,0,1,21.14-9.338a1.465,1.465,0,0,1-1.505-1.432A1.465,1.465,0,0,1,21.14-12.2a1.464,1.464,0,0,1,1.505,1.434" transform="translate(24.081 77.202)" fill="#fff"/>
      <g id="Group_6217" data-name="Group 6217" transform="translate(50.672 70.541)">
        <path id="Path_3199" data-name="Path 3199" d="M5.068,1.878A8.419,8.419,0,0,0,.82.413c-1.538,0-2.543.859-2.543,1.846,0,1.149,1.038,1.625,4.615,3.409.8.414,2.743,1.434,2.743,3.665,0,1.432-1.2,4.012-4.949,4.012a10.263,10.263,0,0,1-4.818-1.307V9.777A9.788,9.788,0,0,0,.719,11.4c1.171,0,2.543-.7,2.543-1.91,0-1.369-1.371-2.039-3.346-2.93C-1.923,5.732-4.03,4.712-4.03,2.323c0-1.752,1.5-3.854,4.816-3.854A8.592,8.592,0,0,1,5.068-.32Z" transform="translate(4.132 1.531)" fill="#fff"/>
      </g>
    </g>
    <g id="Group_6219" data-name="Group 6219" transform="translate(71.51 29.431)">
      <path id="Path_3201" data-name="Path 3201" d="M4.312,8.036h-1L-3.516-6.552h2.442L3.811,3.863,8.46-6.552h2.409Z" transform="translate(3.516 6.552)" fill="#fff"/>
    </g>
    <g id="Group_6226" data-name="Group 6226" transform="translate(0 -41.397)" clip-path="url(#clip-path)">
      <path id="Path_3202" data-name="Path 3202" d="M42.377,7.926H40.07v-14.3h2.307Zm.367-18.7a1.463,1.463,0,0,1-1.505,1.432,1.463,1.463,0,0,1-1.5-1.432,1.463,1.463,0,0,1,1.5-1.434,1.464,1.464,0,0,1,1.505,1.434" transform="translate(48.734 77.202)" fill="#fff"/>
      <g id="Group_6220" data-name="Group 6220" transform="translate(95.359 63.407)">
        <path id="Path_3203" data-name="Path 3203" d="M6.21,5.509a7.068,7.068,0,0,0-3.447-.924A5.119,5.119,0,0,0-2.69,10.031c0,3.442,2.409,5.254,5.956,5.254H6.21ZM3.233,17.229c-5.252,0-8.3-2.547-8.3-7.134A7.1,7.1,0,0,1,2.4,2.642,9.542,9.542,0,0,1,6.21,3.5v-8H8.516V17.229Z" transform="translate(5.063 4.492)" fill="#fff"/>
      </g>
      <g id="Group_6221" data-name="Group 6221" transform="translate(113.186 70.54)">
        <path id="Path_3204" data-name="Path 3204" d="M4.533,4.089C.686,4.757-1.389,5.968-1.389,7.751a2.349,2.349,0,0,0,2.545,2.2,5.2,5.2,0,0,0,3.378-1.53Zm4.649,6.147c-1.872,1.274-2.576,1.307-2.977,1.307-1.238,0-1.505-.957-1.639-1.625A6.858,6.858,0,0,1,.185,11.543,3.722,3.722,0,0,1-3.7,7.912c0-2.327,2.006-4.206,8.229-5.257V1.382c0-.924-.167-2.772-2.977-2.772A6.9,6.9,0,0,0-3.128.711V-1.582A7.746,7.746,0,0,1,1.757-3.334c4.281,0,5.083,2.868,5.083,4.493V8.994c0,.606.067.764.4.764A4.386,4.386,0,0,0,9.182,8.74Z" transform="translate(3.696 3.334)" fill="#fff"/>
      </g>
      <g id="Group_6222" data-name="Group 6222" transform="translate(138.306 70.829)">
        <path id="Path_3205" data-name="Path 3205" d="M1.271,6.456a7.068,7.068,0,0,0,3.447.924A5.118,5.118,0,0,0,10.17,1.934c0-3.442-2.409-5.257-5.956-5.257H1.271ZM4.247-5.264c5.252,0,8.3,2.547,8.3,7.134A7.1,7.1,0,0,1,5.085,9.324a9.542,9.542,0,0,1-3.814-.862v7.612H-1.036V-5.264Z" transform="translate(1.036 5.264)" fill="#fff"/>
      </g>
      <g id="Group_6223" data-name="Group 6223" transform="translate(155.364 70.54)">
        <path id="Path_3206" data-name="Path 3206" d="M4.533,4.089c-3.847.668-5.92,1.879-5.92,3.663a2.347,2.347,0,0,0,2.543,2.2,5.2,5.2,0,0,0,3.378-1.53Zm4.649,6.147c-1.872,1.274-2.576,1.307-2.977,1.307-1.238,0-1.505-.957-1.639-1.625A6.858,6.858,0,0,1,.185,11.543,3.722,3.722,0,0,1-3.7,7.912c0-2.327,2.006-4.206,8.229-5.257V1.382c0-.924-.167-2.772-2.977-2.772A6.9,6.9,0,0,0-3.128.711V-1.582A7.746,7.746,0,0,1,1.757-3.334c4.281,0,5.083,2.868,5.083,4.493V8.994c0,.606.067.764.4.764A4.386,4.386,0,0,0,9.182,8.74Z" transform="translate(3.696 3.334)" fill="#fff"/>
      </g>
      <g id="Group_6224" data-name="Group 6224" transform="translate(171.451 70.541)">
        <path id="Path_3207" data-name="Path 3207" d="M1.272.158V3.311A9.209,9.209,0,0,1,3.781.668a4.606,4.606,0,0,1,2.273-.8c1.441,0,3.012,1.242,3.58,1.688L8.4,3.471a4.859,4.859,0,0,0-2.91-1.338A4.55,4.55,0,0,0,1.806,4.84a8.689,8.689,0,0,0-.534,3.44v6.178H-1.037V.158Z" transform="translate(1.037 0.129)" fill="#fff"/>
      </g>
      <g id="Group_6225" data-name="Group 6225" transform="translate(183.493 70.54)">
        <path id="Path_3208" data-name="Path 3208" d="M4.533,4.089c-3.847.668-5.92,1.879-5.92,3.663a2.347,2.347,0,0,0,2.543,2.2,5.2,5.2,0,0,0,3.378-1.53Zm4.649,6.147c-1.872,1.274-2.576,1.307-2.977,1.307-1.238,0-1.505-.957-1.639-1.625A6.858,6.858,0,0,1,.185,11.543,3.722,3.722,0,0,1-3.7,7.912c0-2.327,2.006-4.206,8.229-5.257V1.382c0-.924-.167-2.772-2.977-2.772A6.9,6.9,0,0,0-3.128.711V-1.582A7.746,7.746,0,0,1,1.757-3.334c4.281,0,5.083,2.868,5.083,4.493V8.994c0,.606.067.764.4.764A4.386,4.386,0,0,0,9.182,8.74Z" transform="translate(3.696 3.334)" fill="#fff"/>
      </g>
    </g>
    <g id="Group_6227" data-name="Group 6227" transform="translate(206.503 29.431)">
      <path id="Path_3210" data-name="Path 3210" d="M4.312,8.036h-1L-3.516-6.552h2.442L3.811,3.863,8.46-6.552h2.409Z" transform="translate(3.516 6.552)" fill="#fff"/>
    </g>
    <g id="Group_6231" data-name="Group 6231" transform="translate(0 -41.397)" clip-path="url(#clip-path)">
      <g id="Group_6228" data-name="Group 6228" transform="translate(222.626 70.54)">
        <path id="Path_3211" data-name="Path 3211" d="M1.309,4.089A5.408,5.408,0,0,0,6.761,9.6a5.38,5.38,0,0,0,5.417-5.51A5.354,5.354,0,0,0,6.761-1.39,5.382,5.382,0,0,0,1.309,4.089m13.245,0a7.657,7.657,0,0,1-7.826,7.454A7.628,7.628,0,0,1-1.067,4.089,7.6,7.6,0,0,1,6.728-3.334a7.632,7.632,0,0,1,7.826,7.423" transform="translate(1.067 3.334)" fill="#fff"/>
      </g>
      <g id="Group_6229" data-name="Group 6229" transform="translate(241.759 70.541)">
        <path id="Path_3212" data-name="Path 3212" d="M6.338,1.772A8.16,8.16,0,0,0,2.224.594c-3.981,0-5.018,3.6-5.018,5.446a5.067,5.067,0,0,0,5.419,5.35,10.17,10.17,0,0,0,4.014-.922v2.164a12.4,12.4,0,0,1-4.248.8c-4.883,0-7.559-3.184-7.559-7.325a7.112,7.112,0,0,1,7.392-7.55,10.7,10.7,0,0,1,4.114.862Z" transform="translate(5.168 1.445)" fill="#fff"/>
      </g>
      <g id="Group_6230" data-name="Group 6230" transform="translate(256.408 63.28)">
        <path id="Path_3213" data-name="Path 3213" d="M6.136,7.3A4.129,4.129,0,0,0,1.955,3.253C.082,3.253-1.926,4.4-2.494,7.3ZM6.27-.95H4.7L1.621-4.072-1.456-.95H-2.995l3.344-5H2.925ZM8.512,8.891H-2.627a5.135,5.135,0,0,0,5.386,5.352,8.646,8.646,0,0,0,5.517-2.006v2.229a9.612,9.612,0,0,1-5.784,1.719C-2.527,16.184-5,12.555-5,8.7c0-4.969,3.48-7.392,6.891-7.392,3.714,0,6.624,2.9,6.624,7.071Z" transform="translate(5.003 5.951)" fill="#fff"/>
      </g>
    </g>
  </g>
</svg>
