<svg xmlns="http://www.w3.org/2000/svg" width="270.1" height="92.1" viewBox="0 0 270.1 92.1"><path d="M238,13.6c-29.9,0-32.8,16.1-32.8,21,0,17.2,14.9,23,34.1,23h0c11.6,0,25.2-3.5,30.1-13.4H250.9c-1.5,2.9-6.7,4.5-11.6,4.5-14.5,0-15.6-7.1-16.1-10.1h46.9v-2C270.1,17.4,251.4,13.6,238,13.6ZM223.7,31.4c1.1-5.4,5.6-8.7,14-8.7h0c5.8,0,12.9,2,14,8.7h-28Z" fill="#cf025b"/><path d="M60,48.2V25.6c0-10.1-17.6-12-27.4-12-14,0-28.5,1.8-30.5,14.5H19.5c.4-2.4,2-5.8,10.9-5.8,4.7,0,12,.4,12,4.9,0,2.4-3.6,3.1-6.3,3.3h0L20,32.1C8.5,33,0,37.2,0,45.3,0,54,10.5,57.7,20.8,57.7c12.2,0,17.9-3.5,21.9-6.2a15.537,15.537,0,0,0,1.8,5.1H63.7V54.8C61.6,54.4,60,53.3,60,48.2ZM42.4,41.5c0,5.1-8.2,8.2-16.1,8.2-3.4,0-8.3-1.1-8.3-5.1,0-4.5,5.6-5.4,12.1-6.2,7.4-.7,10.5-1.5,12.3-2.4Z" fill="#cf025b"/><path d="M99.7,22.8c8.3-.4,11.1,4,12,6.7h18.1c-1.6-13.1-19.4-16-30.1-16-23,0-32.8,9.6-32.8,23.2,0,8.7,6,20.8,31.7,20.8h0c25,0,30.5-12.2,31-16.5H111.5c0,2-3.1,7.4-12.1,7.4-13.6,0-14-9.1-14-13.6C85.4,29.7,88.5,22.8,99.7,22.8Z" fill="#cf025b"/><path d="M175.3,13.6c-9.8,0-17.4,3.1-19.8,6.5h-.4V0h-18V56.6h18V32.5c0-6.3,6.2-9.6,14.1-9.6,11.4,0,11.8,5.3,11.8,8.2V56.7h18v-29C199,18.3,188.5,13.6,175.3,13.6Z" fill="#cf025b"/><rect width="56.2" height="7.1" transform="translate(209.9)" fill="#cf025b"/><path d="M18.9,70.5c-1.2,0-3.1.3-5.1,3a5.053,5.053,0,0,0-4.6-3c-2.1,0-3.3,1-4.7,2.5V70.8H2.2V85.1H4.5V74.9c1-1.3,2.2-2.5,4-2.5,2.4,0,3.4,1.5,3.4,4.1V85h2.3V75.1a5.349,5.349,0,0,1,4.2-2.6c2.7,0,3.2,2.5,3.2,4.1v8.6H24V76.6C24,74.1,23.1,70.5,18.9,70.5Z" fill="#cf025b"/><path d="M38.5,82.9V75c0-1.6-.8-4.5-5.1-4.5a7.421,7.421,0,0,0-4.9,1.8v2.3a6.841,6.841,0,0,1,4.7-2.1c2.8,0,3,1.8,3,2.8v1.3c-6.2,1-8.2,2.9-8.2,5.2v.1a3.782,3.782,0,0,0,3.9,3.6,6.989,6.989,0,0,0,4.4-1.6c.1.7.4,1.6,1.6,1.6.4,0,1.1,0,3-1.3V82.7a4.981,4.981,0,0,1-1.9,1C38.6,83.6,38.5,83.5,38.5,82.9Zm-5.7.9h0a2.24,2.24,0,0,1-2.5-2.2c0-1.8,2.1-3,5.9-3.7v4.3A4.965,4.965,0,0,1,32.8,83.8Z" fill="#cf025b"/><path d="M45.2,65h0a1.453,1.453,0,0,0-1.5,1.4h0a1.453,1.453,0,0,0,1.5,1.4h0a1.453,1.453,0,0,0,1.5-1.4h0A1.453,1.453,0,0,0,45.2,65Z" fill="#cf025b"/><path d="M46.7,66.4Z" fill="#cf025b"/><rect width="2.3" height="14.3" transform="translate(44 70.8)" fill="#cf025b"/><path d="M57.7,77.7c-3.6-1.8-4.6-2.3-4.6-3.4,0-1,1-1.8,2.5-1.8A7.921,7.921,0,0,1,59.8,74V71.8a8.214,8.214,0,0,0-4.3-1.2c-3.3,0-4.8,2.1-4.8,3.9,0,2.4,2.1,3.4,3.9,4.2,2,.9,3.3,1.6,3.3,2.9,0,1.2-1.4,1.9-2.5,1.9a10.921,10.921,0,0,1-4.9-1.6v2.3a10.153,10.153,0,0,0,4.8,1.3c3.7,0,4.9-2.6,4.9-4C60.4,79.2,58.5,78.2,57.7,77.7Z" fill="#cf025b"/><path d="M78.8,81.2,74,70.8H71.5l6.8,14.6h1l6.6-14.6H83.5Z" fill="#cf025b"/><rect width="2.3" height="14.3" transform="translate(88.8 70.8)" fill="#cf025b"/><path d="M90,65h0a1.453,1.453,0,0,0-1.5,1.4h0A1.453,1.453,0,0,0,90,67.8h0a1.453,1.453,0,0,0,1.5-1.4h0A1.453,1.453,0,0,0,90,65Z" fill="#cf025b"/><path d="M106.6,71.4a12.407,12.407,0,0,0-3.8-.9h-.7A7.08,7.08,0,0,0,95.4,78c0,4.6,3,7.1,8.3,7.1H109V63.4h-2.3v8Zm0,11.8h-2.9c-3.5,0-6-1.8-6-5.3v-.7a5.158,5.158,0,0,1,5.5-4.8,6.65,6.65,0,0,1,3.4.9Z" fill="#cf025b"/><path d="M123.7,82.9V75c0-1.6-.8-4.5-5.1-4.5a7.421,7.421,0,0,0-4.9,1.8v2.3a6.841,6.841,0,0,1,4.7-2.1c2.8,0,3,1.8,3,2.8v1.3c-6.2,1.1-8.2,2.9-8.2,5.3V82a3.782,3.782,0,0,0,3.9,3.6,6.989,6.989,0,0,0,4.4-1.6c.1.7.4,1.6,1.6,1.6.4,0,1.1,0,3-1.3V82.8a4.981,4.981,0,0,1-1.9,1C123.8,83.6,123.7,83.5,123.7,82.9Zm-5.7.9h0a2.24,2.24,0,0,1-2.5-2.2c0-1.8,2.1-3,5.9-3.7v4.3A4.965,4.965,0,0,1,118,83.8Z" fill="#cf025b"/><path d="M143.6,70.8h-5.3V92.1h2.3V84.5a12.407,12.407,0,0,0,3.8.9h.7a7.08,7.08,0,0,0,6.7-7.5C151.9,73.4,148.8,70.8,143.6,70.8Zm5.9,7.9a5.158,5.158,0,0,1-5.5,4.8,6.65,6.65,0,0,1-3.4-.9V72.8h2.9c3.5,0,6,1.8,6,5.3Z" fill="#cf025b"/><path d="M165.9,82.9V75c0-1.6-.8-4.5-5.1-4.5a7.421,7.421,0,0,0-4.9,1.8v2.3a6.841,6.841,0,0,1,4.7-2.1c2.8,0,3,1.8,3,2.8v1.3c-6.2,1.1-8.2,2.9-8.2,5.3V82a3.782,3.782,0,0,0,3.9,3.6,6.989,6.989,0,0,0,4.4-1.6c.1.7.4,1.6,1.6,1.6.4,0,1.1,0,3-1.3V82.8a4.981,4.981,0,0,1-1.9,1C166,83.6,165.9,83.5,165.9,82.9Zm-5.7.9h0a2.24,2.24,0,0,1-2.5-2.2c0-1.8,2.1-3,5.9-3.7v4.3A4.965,4.965,0,0,1,160.2,83.8Z" fill="#cf025b"/><path d="M176.3,71.3a8.83,8.83,0,0,0-2.5,2.6V70.7h-2.3V85h2.3V78.8a7.826,7.826,0,0,1,.5-3.4,4.721,4.721,0,0,1,3.7-2.7,5.149,5.149,0,0,1,2.9,1.3l1.2-1.9c-.6-.4-2.1-1.7-3.6-1.7A7.26,7.26,0,0,0,176.3,71.3Z" fill="#cf025b"/><path d="M194,82.9V75c0-1.6-.8-4.5-5.1-4.5a7.421,7.421,0,0,0-4.9,1.8v2.3a6.841,6.841,0,0,1,4.7-2.1c2.8,0,3,1.8,3,2.8v1.3c-6.2,1.1-8.2,2.9-8.2,5.3V82a3.782,3.782,0,0,0,3.9,3.6,6.989,6.989,0,0,0,4.4-1.6c.1.7.4,1.6,1.6,1.6.4,0,1.1,0,3-1.3V82.8a4.981,4.981,0,0,1-1.9,1C194.1,83.6,194,83.5,194,82.9Zm-5.7.9h0a2.24,2.24,0,0,1-2.5-2.2c0-1.8,2.1-3,5.9-3.7v4.3A4.965,4.965,0,0,1,188.3,83.8Z" fill="#cf025b"/><path d="M213.8,81.2l-4.9-10.4h-2.4l6.8,14.6h1l6.6-14.6h-2.4Z" fill="#cf025b"/><path d="M230.4,70.5h0a7.6,7.6,0,0,0-7.8,7.4,7.75,7.75,0,0,0,7.8,7.5,7.458,7.458,0,1,0,0-14.9Zm5.5,7.6a5.233,5.233,0,0,1-5.4,5.3h-.1a5.377,5.377,0,0,1-5.3-5.5v-.2a5.38,5.38,0,0,1,5.5-5.3h.2a5.3,5.3,0,0,1,5.2,5.5A.31.31,0,0,0,235.9,78.1Z" fill="#cf025b"/><path d="M248.9,83.4a5.2,5.2,0,0,1-4.8-5.4c0-1.8,1-5.4,5-5.4a7.3,7.3,0,0,1,4.1,1.2V71.4a11.616,11.616,0,0,0-4.1-.9h-.7a7.14,7.14,0,0,0-6.7,7.5c0,4.1,2.7,7.3,7.6,7.3a11.623,11.623,0,0,0,4.2-.8V82.3a9.34,9.34,0,0,1-4,.9A.735.735,0,0,1,248.9,83.4Z" fill="#cf025b"/><path d="M263.3,70.5c-3.4,0-6.9,2.4-6.9,7.4,0,3.9,2.5,7.5,7.5,7.5a9.208,9.208,0,0,0,5.8-1.7V81.5a8.459,8.459,0,0,1-5.5,2h-.5a5.154,5.154,0,0,1-4.9-5.4h11.1v-.5C269.9,73.4,267,70.5,263.3,70.5Zm-4.4,6c.6-2.9,2.6-4,4.4-4a4.188,4.188,0,0,1,4.2,4Z" fill="#cf025b"/><path d="M263,65.2l3.1,3.1h1.6l-3.4-5h-2.5l-3.4,5H260Z" fill="#cf025b"/></svg>