<?xml version="1.0" encoding="utf-8"?>
<!-- Generator: Adobe Illustrator 26.2.1, SVG Export Plug-In . SVG Version: 6.00 Build 0)  -->
<svg version="1.1" id="Layer_1" xmlns="http://www.w3.org/2000/svg" xmlns:xlink="http://www.w3.org/1999/xlink" x="0px" y="0px"
	 viewBox="0 0 270.1 92.2" style="enable-background:new 0 0 270.1 92.2;" xml:space="preserve">
<style type="text/css">
	.st0{fill:#FFFFFF;}
</style>
<g>
	<path class="st0" d="M238,13.6c-29.9,0-32.8,16.1-32.8,21c0,17.2,14.9,23,34.1,23l0,0c11.6,0,25.2-3.5,30.1-13.4h-18.5
		c-1.5,2.9-6.7,4.5-11.6,4.5c-14.5,0-15.6-7.1-16.1-10.1h46.9v-2C270.1,17.4,251.4,13.6,238,13.6z M223.7,31.4
		c1.1-5.4,5.6-8.7,14-8.7h0c5.8,0,12.9,2,14,8.7H223.7z"/>
	<path class="st0" d="M60,48.2V25.6c0-10.1-17.6-12-27.4-12c-14,0-28.5,1.8-30.5,14.5h17.4c0.4-2.4,2-5.8,10.9-5.8
		c4.7,0,12,0.4,12,4.9c0,2.4-3.6,3.1-6.3,3.3l0,0l-16.1,1.6C8.5,33,0,37.2,0,45.3C0,54,10.5,57.7,20.8,57.7
		c12.2,0,17.9-3.5,21.9-6.2c0.3,1.8,0.9,3.5,1.8,5.1h19.2v-1.8C61.6,54.4,60,53.3,60,48.2z M42.4,41.5c0,5.1-8.2,8.2-16.1,8.2
		c-3.4,0-8.3-1.1-8.3-5.1c0-4.5,5.6-5.4,12.1-6.2c7.4-0.7,10.5-1.5,12.3-2.4L42.4,41.5z"/>
	<path class="st0" d="M99.7,22.8c8.3-0.4,11.1,4,12,6.7h18.1c-1.6-13.1-19.4-16-30.1-16c-23,0-32.8,9.6-32.8,23.2
		c0,8.7,6,20.8,31.7,20.8l0,0c25,0,30.5-12.2,31-16.5h-18.1c0,2-3.1,7.4-12.1,7.4c-13.6,0-14-9.1-14-13.6
		C85.4,29.7,88.5,22.8,99.7,22.8z"/>
	<path class="st0" d="M175.3,13.6c-9.8,0-17.4,3.1-19.8,6.5h-0.4V0h-18v56.6h18V32.5c0-6.3,6.2-9.6,14.1-9.6
		c11.4,0,11.8,5.3,11.8,8.2v25.6H199v-29C199,18.3,188.5,13.6,175.3,13.6z"/>
	<rect x="209.9" y="0" class="st0" width="56.2" height="7.1"/>
	<path class="st0" d="M18.9,70.5c-1.2,0-3.1,0.3-5.1,3c-0.8-1.8-2.6-3-4.6-3c-2.1,0-3.3,1-4.7,2.5v-2.2H2.2v14.3h2.3V74.9
		c1-1.3,2.2-2.5,4-2.5c2.4,0,3.4,1.5,3.4,4.1v8.5h2.3V75.1c0.9-1.5,2.5-2.5,4.2-2.6c2.7,0,3.2,2.5,3.2,4.1v8.6H24v-8.6
		C24,74.1,23.1,70.5,18.9,70.5z"/>
	<path class="st0" d="M38.5,82.9V75c0-1.6-0.8-4.5-5.1-4.5c-1.8,0-3.5,0.6-4.9,1.8v2.3c1.2-1.3,2.9-2,4.7-2.1c2.8,0,3,1.8,3,2.8v1.3
		C30,77.6,28,79.5,28,81.8c0,0,0,0.1,0,0.1c0.1,2.1,1.8,3.6,3.9,3.6c1.6,0,3.2-0.6,4.4-1.6c0.1,0.7,0.4,1.6,1.6,1.6
		c0.4,0,1.1,0,3-1.3v-1.5c-0.6,0.5-1.2,0.8-1.9,1C38.6,83.6,38.5,83.5,38.5,82.9z M32.8,83.8C32.8,83.8,32.8,83.8,32.8,83.8
		c-1.4,0.1-2.5-0.9-2.5-2.2c0-1.8,2.1-3,5.9-3.7l0,4.3C35.3,83.2,34.1,83.7,32.8,83.8z"/>
	<path class="st0" d="M45.2,65C45.2,65,45.2,65,45.2,65c-0.8,0-1.5,0.6-1.5,1.4c0,0,0,0,0,0c0,0.8,0.7,1.4,1.5,1.4c0,0,0,0,0,0
		c0.8,0,1.5-0.6,1.5-1.4c0,0,0,0,0,0C46.7,65.6,46,65,45.2,65z"/>
	<polygon class="st0" points="46.7,66.4 46.7,66.4 46.7,66.4 	"/>
	<rect x="44" y="70.8" class="st0" width="2.3" height="14.3"/>
	<path class="st0" d="M57.7,77.7c-3.6-1.8-4.6-2.3-4.6-3.4c0-1,1-1.8,2.5-1.8c1.5,0.1,3,0.6,4.2,1.5v-2.2c-1.3-0.8-2.8-1.2-4.3-1.2
		c-3.3,0-4.8,2.1-4.8,3.9c0,2.4,2.1,3.4,3.9,4.2c2,0.9,3.3,1.6,3.3,2.9c0,1.2-1.4,1.9-2.5,1.9c-1.7-0.1-3.4-0.7-4.9-1.6v2.3
		c1.5,0.8,3.1,1.3,4.8,1.3c3.7,0,4.9-2.6,4.9-4C60.4,79.2,58.5,78.2,57.7,77.7z"/>
	<polygon class="st0" points="78.8,81.2 74,70.8 71.5,70.8 78.3,85.4 79.3,85.4 85.9,70.8 83.5,70.8 	"/>
	<rect x="88.8" y="70.8" class="st0" width="2.3" height="14.3"/>
	<path class="st0" d="M90,65C90,65,90,65,90,65c-0.8,0-1.5,0.6-1.5,1.4c0,0,0,0,0,0c0,0.8,0.7,1.4,1.5,1.4c0,0,0,0,0,0
		c0.8,0,1.5-0.6,1.5-1.4c0,0,0,0,0,0C91.5,65.6,90.8,65,90,65z"/>
	<path class="st0" d="M106.6,71.4c-1.2-0.5-2.5-0.8-3.8-0.9c-0.2,0-0.5,0-0.7,0c-3.9,0.2-6.9,3.5-6.7,7.5c0,4.6,3,7.1,8.3,7.1h5.3
		V63.4h-2.3V71.4z M106.6,83.2h-2.9c-3.5,0-6-1.8-6-5.3c0-0.2,0-0.5,0-0.7c0.2-2.8,2.6-5,5.5-4.8c1.2,0,2.4,0.3,3.4,0.9V83.2z"/>
	<path class="st0" d="M123.7,82.9V75c0-1.6-0.8-4.5-5.1-4.5c-1.8,0-3.5,0.6-4.9,1.8v2.3c1.2-1.3,2.9-2,4.7-2.1c2.8,0,3,1.8,3,2.8
		v1.3c-6.2,1.1-8.2,2.9-8.2,5.3c0,0,0,0.1,0,0.1c0.1,2.1,1.8,3.6,3.9,3.6c1.6,0,3.2-0.6,4.4-1.6c0.1,0.7,0.4,1.6,1.6,1.6
		c0.4,0,1.1,0,3-1.3v-1.5c-0.6,0.5-1.2,0.8-1.9,1C123.8,83.6,123.7,83.5,123.7,82.9z M118,83.8C118,83.8,118,83.8,118,83.8
		c-1.4,0.1-2.5-0.9-2.5-2.2c0-1.8,2.1-3,5.9-3.7l0,4.3C120.5,83.2,119.3,83.7,118,83.8z"/>
	<path class="st0" d="M143.6,70.8h-5.3v21.3h2.3v-7.6c1.2,0.5,2.5,0.8,3.8,0.9c0.2,0,0.5,0,0.7,0c3.9-0.2,6.9-3.5,6.7-7.5
		C151.9,73.4,148.8,70.8,143.6,70.8z M149.5,78.7c-0.2,2.8-2.6,5-5.5,4.8c-1.2,0-2.4-0.3-3.4-0.9v-9.8h2.9c3.5,0,6,1.8,6,5.3
		C149.5,78.3,149.5,78.5,149.5,78.7z"/>
	<path class="st0" d="M165.9,82.9V75c0-1.6-0.8-4.5-5.1-4.5c-1.8,0-3.5,0.6-4.9,1.8v2.3c1.2-1.3,2.9-2,4.7-2.1c2.8,0,3,1.8,3,2.8
		v1.3c-6.2,1.1-8.2,2.9-8.2,5.3c0,0,0,0.1,0,0.1c0.1,2.1,1.8,3.6,3.9,3.6c1.6,0,3.2-0.6,4.4-1.6c0.1,0.7,0.4,1.6,1.6,1.6
		c0.4,0,1.1,0,3-1.3v-1.5c-0.6,0.5-1.2,0.8-1.9,1C166,83.6,165.9,83.5,165.9,82.9z M160.2,83.8C160.2,83.8,160.2,83.8,160.2,83.8
		c-1.4,0.1-2.5-0.9-2.5-2.2c0-1.8,2.1-3,5.9-3.7l0,4.3C162.7,83.2,161.5,83.7,160.2,83.8z"/>
	<path class="st0" d="M176.3,71.3c-1,0.7-1.9,1.6-2.5,2.6v-3.2h-2.3v14.3h2.3v-6.2c-0.1-1.2,0.1-2.3,0.5-3.4
		c0.7-1.5,2.1-2.5,3.7-2.7c1.1,0.1,2.1,0.6,2.9,1.3l1.2-1.9c-0.6-0.4-2.1-1.7-3.6-1.7C177.7,70.6,176.9,70.9,176.3,71.3z"/>
	<path class="st0" d="M194,82.9V75c0-1.6-0.8-4.5-5.1-4.5c-1.8,0-3.5,0.6-4.9,1.8v2.3c1.2-1.3,2.9-2,4.7-2.1c2.8,0,3,1.8,3,2.8v1.3
		c-6.2,1.1-8.2,2.9-8.2,5.3c0,0,0,0.1,0,0.1c0.1,2.1,1.8,3.6,3.9,3.6c1.6,0,3.2-0.6,4.4-1.6c0.1,0.7,0.4,1.6,1.6,1.6
		c0.4,0,1.1,0,3-1.3v-1.5c-0.6,0.5-1.2,0.8-1.9,1C194.1,83.6,194,83.5,194,82.9z M188.3,83.8C188.3,83.8,188.3,83.8,188.3,83.8
		c-1.4,0.1-2.5-0.9-2.5-2.2c0-1.8,2.1-3,5.9-3.7l0,4.3C190.8,83.2,189.6,83.7,188.3,83.8z"/>
	<polygon class="st0" points="213.8,81.2 208.9,70.8 206.5,70.8 213.3,85.4 214.3,85.4 220.9,70.8 218.5,70.8 	"/>
	<path class="st0" d="M230.4,70.5C230.4,70.5,230.4,70.5,230.4,70.5c-4.2-0.1-7.7,3.2-7.8,7.4c0.1,4.2,3.6,7.5,7.8,7.5
		c4.2,0.1,7.7-3.2,7.8-7.5C238.1,73.8,234.6,70.4,230.4,70.5z M235.9,78.1c0,3-2.4,5.4-5.4,5.3c0,0-0.1,0-0.1,0
		c-3-0.1-5.4-2.5-5.3-5.5c0-0.1,0-0.1,0-0.2c0-3,2.5-5.3,5.5-5.3c0.1,0,0.1,0,0.2,0c3,0.1,5.3,2.5,5.2,5.5
		C235.9,78,235.9,78.1,235.9,78.1z"/>
	<path class="st0" d="M248.9,83.4c-2.8-0.2-4.9-2.6-4.8-5.4c0-1.8,1-5.4,5-5.4c1.5,0,2.9,0.4,4.1,1.2v-2.4c-1.3-0.6-2.7-0.8-4.1-0.9
		c-0.2,0-0.5,0-0.7,0c-3.9,0.2-6.9,3.6-6.7,7.5c0,4.1,2.7,7.3,7.6,7.3c1.5,0,2.9-0.3,4.2-0.8v-2.2c-1.3,0.6-2.6,0.9-4,0.9
		C249.3,83.4,249.1,83.4,248.9,83.4z"/>
	<path class="st0" d="M263.3,70.5c-3.4,0-6.9,2.4-6.9,7.4c0,3.9,2.5,7.5,7.5,7.5c2.1,0.1,4.1-0.5,5.8-1.7v-2.2c-1.5,1.3-3.5,2-5.5,2
		c-0.2,0-0.3,0-0.5,0c-2.8-0.1-5-2.5-4.9-5.4h11.1l0-0.5C269.9,73.4,267,70.5,263.3,70.5z M258.9,76.5c0.6-2.9,2.6-4,4.4-4
		c2.3,0,4.1,1.8,4.2,4H258.9z"/>
	<polygon class="st0" points="263,65.2 266.1,68.3 267.7,68.3 264.3,63.3 261.8,63.3 258.4,68.3 260,68.3 	"/>
</g>
</svg>
